<svg xmlns="http://www.w3.org/2000/svg" width="26.804" height="31.71" viewBox="0 0 26.804 31.71">
  <g id="noun-cards-4560741" transform="matrix(0.921, -0.391, 0.391, 0.921, -1.463, 8.13)">
    <path id="Path_9" data-name="Path 9" d="M127.294,92.584a2.449,2.449,0,0,0,1.444-.471,2.48,2.48,0,0,0,.993-1.612l2.661-16.72a2.475,2.475,0,0,0-2.053-2.833l-10.395-1.657a2.471,2.471,0,0,0-2.833,2.048l-.335,2.1a.533.533,0,1,0,1.054.162l.334-2.1a1.4,1.4,0,0,1,1.607-1.161L130.173,72a1.4,1.4,0,0,1,1.166,1.607l-2.666,16.72a1.4,1.4,0,0,1-1.607,1.161l-.426-.066a.533.533,0,0,0-.162,1.054l.426.066a1.7,1.7,0,0,0,.39.041Z" transform="translate(-111.618 -69.258)" fill="#acacac"/>
    <path id="Path_10" data-name="Path 10" d="M224.473,164.975H235a2.477,2.477,0,0,0,2.473-2.473V145.573A2.477,2.477,0,0,0,235,143.1H224.473A2.477,2.477,0,0,0,222,145.573V162.5a2.477,2.477,0,0,0,2.473,2.473ZM235,144.164a1.407,1.407,0,0,1,1.4,1.4V162.5a1.407,1.407,0,0,1-1.4,1.4H224.473a1.407,1.407,0,0,1-1.4-1.4V145.573a1.407,1.407,0,0,1,1.4-1.4c0-.005,10.527-.005,10.527-.005Z" transform="translate(-222 -139.357)" fill="#acacac"/>
  </g>
</svg>
