<?xml version="1.0" encoding="utf-8"?>
<!-- Generator: Adobe Illustrator 25.4.0, SVG Export Plug-In . SVG Version: 6.00 Build 0)  -->
<svg version="1.1" id="Laag_1" xmlns="http://www.w3.org/2000/svg" xmlns:xlink="http://www.w3.org/1999/xlink" x="0px" y="0px"
	 viewBox="0 0 700 700" style="enable-background:new 0 0 700 700;" xml:space="preserve">
<style type="text/css">
	.st0{fill:#ECAA0F;}
</style>
<path class="st0" d="M500.5,177.5c-8.7-8.7-22.9-8.7-31.7,0L350,296.3L231.2,177.5c-8.7-8.7-22.9-8.7-31.7,0
	c-8.7,8.8-8.7,22.9,0,31.7L318.3,328L199.5,446.8c-8.7,8.7-8.7,22.9,0,31.7c8.7,8.7,22.9,8.7,31.7,0L350,359.7l118.8,118.8
	c8.7,8.7,22.9,8.8,31.7,0c8.7-8.7,8.7-22.9,0-31.7L381.7,328l118.8-118.8C509.2,200.5,509.2,186.3,500.5,177.5z"/>
</svg>
