<?xml version="1.0" encoding="utf-8"?>
<!-- Generator: Adobe Illustrator 25.4.0, SVG Export Plug-In . SVG Version: 6.00 Build 0)  -->
<svg version="1.1" id="Laag_1" xmlns="http://www.w3.org/2000/svg" xmlns:xlink="http://www.w3.org/1999/xlink" x="0px" y="0px"
	 viewBox="0 0 700 700" style="enable-background:new 0 0 700 700;" xml:space="preserve">
<style type="text/css">
	.st0{fill-rule:evenodd;clip-rule:evenodd;fill:#707070;}
</style>
<path class="st0" d="M547.9,128.8c6.8,6.8,6.8,17.9,0,24.7l-50.9,51c36.2,28.6,65.4,68.6,81.8,119.8c2.1,6.6,2.1,13.6,0,20.2
	c-53.3,165.4-235.9,211.3-361.7,140l-51.9,51.9c-6.8,6.8-17.9,6.8-24.8,0c-6.8-6.8-6.8-17.9,0-24.7l57.3-57.3c0.9-1.8,2-3.5,3.5-5
	l76.2-75.4c0.7-1,1.5-2,2.4-2.9c0.9-0.9,1.9-1.6,2.9-2.3l64.4-63.8l176.1-176.1C530,121.9,541.1,121.9,547.9,128.8L547.9,128.8z
	 M294,407.5l-51.1,51.1c108.3,55.1,257.7,13.1,302.4-124.2c-14.8-45.5-40.8-80.2-72.7-104.5l-57.3,56.7c9,13.7,14.2,30.2,14.2,47.8
	c0,48.3-39.2,87.5-87.5,87.5C324.3,421.8,307.8,416.5,294,407.5L294,407.5z M389.6,312c3.2,6.8,4.9,14.3,4.9,22.3
	c0,29-23.5,52.5-52.5,52.5c-8,0-15.6-1.8-22.4-5l52.2-52.2L389.6,312z M138.7,334.3C176,219.5,286.1,171.5,385,190.9
	c9.5,1.9,18.7-4.3,20.5-13.8c1.9-9.5-4.3-18.7-13.8-20.5c-114-22.3-243.2,33.3-286.5,167.7c-2.1,6.6-2.1,13.6,0,20.2
	c9.2,28.6,22.4,53.8,38.7,75.5c5.8,7.7,16.8,9.3,24.5,3.5s9.3-16.8,3.5-24.5C158.1,380.5,146.8,359.1,138.7,334.3L138.7,334.3z
	 M289.5,334.3c0-29,23.5-52.5,52.5-52.5c9.7,0,17.5-7.8,17.5-17.5c0-9.7-7.8-17.5-17.5-17.5c-48.3,0-87.5,39.2-87.5,87.5
	c0,9.7,7.8,17.5,17.5,17.5S289.5,344,289.5,334.3z"/>
</svg>
