<svg xmlns="http://www.w3.org/2000/svg" width="25.213" height="27.504" viewBox="0 0 25.213 27.504">
  <path id="noun-home-1570645" d="M177.342,78.565,165.5,87.733a.786.786,0,0,0-.3.607v16.808a.79.79,0,0,0,.764.764h8.022a.79.79,0,0,0,.764-.764V99.8a3.056,3.056,0,1,1,6.112,0v5.348a.79.79,0,0,0,.764.764h8.022a.79.79,0,0,0,.764-.764V88.34a.786.786,0,0,0-.3-.607L178.27,78.565a.767.767,0,0,0-.928,0Zm.464,1.562,11.078,8.582v15.676H182.39V99.8a4.584,4.584,0,1,0-9.168,0v4.584h-6.494V88.709Z" transform="translate(-165.2 -78.409)" fill="#acacac"/>
</svg>
