<svg xmlns="http://www.w3.org/2000/svg" width="23.439" height="35.799" viewBox="0 0 23.439 35.799">
  <g id="noun-shoe-421507" transform="translate(-167.167 -2.2)">
    <path id="Path_11" data-name="Path 11" d="M174.613,37.628V35.379l5.228,2.249a22.408,22.408,0,0,0,2.755.16c2.524,0,5.92-.384,7.784-2.217a2.678,2.678,0,0,0-.673-1.762c-.762-.788-2.1-.91-3.927-.352l-.032.006-.032-.006c-.077-.019-7.5-2.229-7.579-9.437l.423-21.6H167.4c-.026.948-.16,8.1.493,10.974.243,1.083.692,2.851,1.16,4.722.91,3.626,1.858,7.374,1.813,7.9a8.713,8.713,0,0,1-.237,1.025,24.237,24.237,0,0,0-.961,6.605v4l4.946-.013Zm15.958-1.941C188.663,37.6,185.184,38,182.6,38a23.712,23.712,0,0,1-2.8-.16l-.026-.006-4.946-2.127v2.14h-5.375V33.636a24.294,24.294,0,0,1,.974-6.663,8.491,8.491,0,0,0,.231-.987c.045-.487-.98-4.561-1.8-7.829-.474-1.871-.916-3.639-1.166-4.728-.7-3.088-.5-11.051-.5-11.128V2.2h11.6l-.423,21.82c.07,6.823,6.887,9.065,7.393,9.225,1.9-.57,3.3-.423,4.113.423a2.855,2.855,0,0,1,.73,1.954v.045Z" transform="translate(0 0)"/>
    <path id="Path_12" data-name="Path 12" d="M177.5,40.623h-4.952v-4a24.236,24.236,0,0,1,.961-6.605,7.564,7.564,0,0,0,.237-1.025c.045-.525-.9-4.273-1.813-7.9-.474-1.871-.916-3.639-1.16-4.722-.653-2.87-.519-10.026-.493-10.974h11.173L181.03,27c.07,7.207,7.5,9.417,7.579,9.437l.032.006.032-.006c1.826-.557,3.165-.436,3.927.352a2.678,2.678,0,0,1,.673,1.762c-1.864,1.832-5.26,2.217-7.784,2.217a22.409,22.409,0,0,1-2.755-.16l-5.228-2.249-.006,2.261Z" transform="translate(-2.887 -2.995)"/>
  </g>
</svg>
