<svg xmlns="http://www.w3.org/2000/svg" width="28.239" height="32.938" viewBox="0 0 28.239 32.938">
  <g id="ios-beer" transform="translate(-4.5 -2.256)">
    <path id="Path_18" data-name="Path 18" d="M8.03,11.81A1.761,1.761,0,0,1,9.8,10.045H26.673a1.65,1.65,0,0,1,.993.323.221.221,0,0,0,.352-.184C28.01,9.764,28,9.5,28,8.6a2.832,2.832,0,0,0-2.8-2.817h-.015a1.1,1.1,0,0,1-.949-.684A4.588,4.588,0,0,0,20.09,2.256,3.949,3.949,0,0,0,16.854,3.6a1,1,0,0,1-1.279.177A3.509,3.509,0,0,0,13.7,3.257a3.455,3.455,0,0,0-2.632,1.279,1.278,1.278,0,0,1-1.221.434,9,9,0,0,0-1.669-.133C6.339,4.837,4.5,6.058,4.5,7.955v.294c0,2.118,1.177,1.684,1.177,3.074v3.736c0,.985-.823,1.419-.823,2.589a1.283,1.283,0,0,0,1.235,1.235H8.03Z" fill="#ecaa0f"/>
    <path id="Path_19" data-name="Path 19" d="M28.077,31.781H7.779a1.029,1.029,0,0,0,0,2.058h20.3a1.029,1.029,0,0,0,0-2.058Z" transform="translate(0.103 1.355)" fill="#ecaa0f"/>
    <path id="Path_20" data-name="Path 20" d="M29.014,13.77H26.661V12a1.18,1.18,0,0,0-1.177-1.177h-15.3A1.18,1.18,0,0,0,9.012,12V27.727a10.641,10.641,0,0,1-.235,2.213l-.007.037a1.39,1.39,0,0,0,.206.993,1.349,1.349,0,0,0,1.125.6H25.83a1.212,1.212,0,0,0,1.2-1.478,9.325,9.325,0,0,1-.352-2.2h2.338a3.541,3.541,0,0,0,3.53-3.53v-7.06a3.542,3.542,0,0,0-3.53-3.537Zm1.471,10.59a1.475,1.475,0,0,1-1.471,1.471H26.661v-10h2.353A1.475,1.475,0,0,1,30.485,17.3v7.06Z" transform="translate(0.195 0.393)" fill="#ecaa0f"/>
  </g>
</svg>
