<svg xmlns="http://www.w3.org/2000/svg" width="40.495" height="35.76" viewBox="0 0 40.495 35.76">
  <path id="FontAwsome_cocktail_" data-name="FontAwsome (cocktail)" d="M20.8,32.408H16.867V23.662L28.73,11.877A1.719,1.719,0,0,0,27.506,8.94H1.73A1.719,1.719,0,0,0,.505,11.877L12.368,23.662v8.746H8.431A2.8,2.8,0,0,0,5.619,35.2a.56.56,0,0,0,.562.559H23.054a.56.56,0,0,0,.562-.559A2.8,2.8,0,0,0,20.8,32.408ZM30.365,0a10.089,10.089,0,0,0-9.5,6.705h3.694A6.717,6.717,0,1,1,27.6,16.159l-2.479,2.463A10.066,10.066,0,1,0,30.365,0Z" transform="translate(0.006)" fill="#ecaa0f"/>
</svg>
