<svg xmlns="http://www.w3.org/2000/svg" width="23.96" height="24.064" viewBox="0 0 23.96 24.064">
  <path id="noun-profile-1026763" d="M71.859,22.784a10.754,10.754,0,0,1,21.355,0ZM77.253,6.563a5.283,5.283,0,1,1,5.283,5.284A5.289,5.289,0,0,1,77.253,6.563Zm8.248,5.85a6.563,6.563,0,1,0-5.929,0,12.033,12.033,0,0,0-9.011,10.474,1.088,1.088,0,0,0,1.092,1.177H93.419a1.088,1.088,0,0,0,1.092-1.177A12.033,12.033,0,0,0,85.5,12.412Z" transform="translate(-70.556)" fill="#acacac" fill-rule="evenodd"/>
</svg>
