<svg xmlns="http://www.w3.org/2000/svg" width="23.931" height="22.905" viewBox="0 0 23.931 22.905">
  <path id="FontAwsome_star_" data-name="FontAwsome (star)" d="M43.2,7.659,36.67,6.706,33.749.784a1.433,1.433,0,0,0-2.568,0L28.26,6.706l-6.535.953a1.432,1.432,0,0,0-.792,2.442l4.728,4.607-1.118,6.508a1.431,1.431,0,0,0,2.075,1.507l5.846-3.073,5.846,3.073a1.432,1.432,0,0,0,2.076-1.507l-1.118-6.508L44,10.1A1.432,1.432,0,0,0,43.2,7.659Zm-6.24,6.3,1.06,6.191-5.56-2.921L26.9,20.148l1.06-6.191-4.5-4.384,6.218-.9,2.782-5.636L35.247,8.67l6.218.9-4.5,4.384Z" transform="translate(-20.5 0.013)" fill="#3a2a00"/>
</svg>
