<svg xmlns="http://www.w3.org/2000/svg" width="41.985" height="19.963" viewBox="0 0 41.985 19.963">
  <g id="noun-shoe-421519" transform="translate(-72 -295.6)">
    <path id="Path_13" data-name="Path 13" d="M74.275,310.241,73,314.707c.015.128.219,1.863,2.618,1.863,2.512,0,28.141.573,28.549.581.2-.023,9.484-1.049,10.562-5.387a1.27,1.27,0,0,0-.091-1.056c-.392-.664-1.426-1.109-3.01-1.275-.068-.023-6.564-2.075-12.977-4.572-8.5-3.32-12.871-5.824-12.992-7.462a1.459,1.459,0,0,0-.626.77c-.257.656-.317,1.916.822,4.195l.015.03-.023.023a6.071,6.071,0,0,1-3.7,1.411h0c-1.946,0-3.727-1.132-5.3-3.365-.37.7-3.591,7.016-2.573,9.77Z" transform="translate(-0.925 -1.664)"/>
    <path id="Path_14" data-name="Path 14" d="M110.719,307.686c-.249-.075-25.9-8.216-25.9-12.019V295.6l-.06.023a1.409,1.409,0,0,0-.732.845c-.257.664-.332,1.946.815,4.232a6,6,0,0,1-3.614,1.366h0c-1.931,0-3.7-1.139-5.274-3.387l-.038-.053-.03.06c-.038.068-3.689,6.949-2.61,9.891L72,313.028v.008c0,.023.143,1.954,2.708,1.954,2.52,0,28.285.573,28.549.573h.008a28.01,28.01,0,0,0,4.9-1.041c2.3-.732,5.168-2.09,5.741-4.4a1.313,1.313,0,0,0-.1-1.124c-.43-.694-1.464-1.139-3.086-1.313Zm-7.477,7.794c-.4-.008-26.029-.581-28.549-.581-2.4,0-2.6-1.735-2.618-1.863l1.275-4.466-.008-.015c-1.026-2.754,2.2-9.069,2.573-9.77,1.577,2.233,3.357,3.365,5.3,3.365h0a6.071,6.071,0,0,0,3.7-1.411l.023-.023-.015-.03c-1.139-2.279-1.079-3.538-.822-4.195a1.458,1.458,0,0,1,.626-.769c.121,1.63,4.489,4.142,12.992,7.461,6.413,2.5,12.909,4.557,12.977,4.572,1.584.166,2.618.611,3.01,1.275a1.27,1.27,0,0,1,.091,1.056c-1.071,4.346-10.351,5.379-10.555,5.394Z" transform="translate(0 0)"/>
  </g>
</svg>
